<?xml version="1.0" encoding="UTF-8" ?>
<!DOCTYPE svg PUBLIC "-//W3C//DTD SVG 1.1//EN" "http://www.w3.org/Graphics/SVG/1.1/DTD/svg11.dtd">
<svg width="856pt" height="252pt" viewBox="0 0 856 252" version="1.1" xmlns="http://www.w3.org/2000/svg">
<g id="#ffffffff">
</g>
<g id="#a2cc40ff">
<path fill="#a2cc40" opacity="1.00" d=" M 120.58 0.00 L 121.42 0.00 C 135.49 13.46 147.43 30.01 152.12 49.17 C 156.79 66.63 154.47 85.57 146.77 101.83 C 140.56 115.03 131.17 126.54 120.77 136.67 C 110.76 127.41 102.29 116.46 95.79 104.47 C 91.87 96.04 88.63 87.20 87.56 77.91 C 84.15 55.51 92.58 32.77 106.20 15.18 C 110.66 9.83 114.96 4.21 120.58 0.00 Z" />
<path fill="#a2cc40" opacity="1.00" d=" M 237.62 89.30 C 238.53 88.81 239.45 88.33 240.37 87.86 C 237.79 103.87 235.31 119.90 232.71 135.89 C 231.10 137.67 228.70 138.51 226.71 139.78 C 199.93 155.35 173.12 170.87 146.34 186.44 C 140.13 189.86 134.23 194.53 126.93 195.24 C 119.28 195.85 111.07 195.89 104.27 191.80 C 74.29 174.41 44.33 156.98 14.34 139.61 C 12.41 138.47 10.55 137.21 8.70 135.94 C 6.14 120.03 3.50 104.13 1.15 88.19 C 4.25 89.49 7.15 91.20 10.03 92.92 C 40.19 110.48 70.41 127.93 100.55 145.52 C 111.31 152.51 125.94 153.06 137.40 147.46 C 170.83 128.11 204.20 108.66 237.62 89.30 Z" />
</g>
<g id="#065091ff">
<path fill="#065091" opacity="1.00" d=" M 409.77 50.94 C 419.45 51.01 429.14 50.76 438.81 51.08 L 438.73 51.66 C 436.66 65.75 434.53 79.83 432.70 93.96 C 423.28 94.52 413.84 94.19 404.42 94.18 C 404.33 92.24 404.19 90.28 404.40 88.35 C 406.15 76.12 408.08 63.92 409.69 51.68 L 409.77 50.94 Z" />
<path fill="#065091" opacity="1.00" d=" M 802.71 60.66 C 812.07 64.75 818.84 73.29 822.41 82.69 C 825.93 92.38 825.81 102.88 824.99 113.02 C 823.16 129.63 817.32 146.43 805.61 158.68 C 800.24 164.26 793.71 168.67 786.78 172.07 C 786.24 169.47 787.06 166.88 787.40 164.31 C 791.12 138.52 794.82 112.73 798.62 86.96 C 800.06 78.20 800.77 69.32 802.71 60.66 Z" />
<path fill="#065091" opacity="1.00" d=" M 555.75 125.68 C 558.08 121.43 559.71 116.75 562.74 112.91 C 560.98 127.01 558.65 141.03 556.74 155.11 C 554.24 173.91 550.83 193.22 540.60 209.56 C 531.32 225.11 515.84 236.76 498.46 241.65 C 500.47 236.20 503.53 231.24 505.97 225.97 C 522.64 192.58 539.27 159.17 555.75 125.68 Z" />
<path fill="#065091" opacity="1.00" d=" M 661.48 167.38 C 661.95 163.47 662.53 159.57 663.52 155.76 C 669.99 184.90 676.06 214.14 681.92 243.41 L 681.97 243.66 C 671.48 243.55 660.99 243.79 650.51 243.54 C 654.12 218.15 657.89 192.77 661.48 167.38 Z" />
</g>
<g id="#0778b8ff">
<path fill="#0778b8" opacity="1.00" d=" M 593.28 50.92 C 608.19 50.71 623.10 50.93 638.01 50.81 C 639.11 50.92 641.18 50.41 641.40 52.01 C 646.50 77.02 651.90 101.96 656.93 126.99 C 659.24 135.96 660.04 145.38 663.21 154.09 C 664.62 149.89 664.83 145.45 665.53 141.12 C 670.01 111.30 674.06 81.42 678.64 51.61 C 703.10 51.70 727.56 51.60 752.02 51.66 C 769.00 51.83 786.47 53.33 801.99 60.82 C 803.27 57.93 803.47 54.73 803.91 51.64 C 820.94 51.64 837.98 51.65 855.01 51.63 C 846.03 115.60 836.29 179.46 827.33 243.42 C 810.21 243.44 793.09 243.40 775.97 243.44 C 779.01 224.31 781.56 205.09 784.43 185.93 C 784.94 181.37 786.06 176.87 785.89 172.26 C 770.25 179.33 752.99 181.62 735.98 182.09 C 727.44 182.15 718.90 182.03 710.37 182.16 C 707.05 202.53 704.25 222.98 701.41 243.42 C 694.91 243.42 688.42 243.44 681.92 243.41 C 676.06 214.14 669.99 184.90 663.52 155.76 C 662.53 159.57 661.95 163.47 661.48 167.38 C 657.89 192.77 654.12 218.15 650.51 243.54 C 643.55 243.31 636.58 243.44 629.62 243.47 C 627.42 231.52 625.07 219.58 623.23 207.57 C 602.72 207.38 582.19 207.33 561.68 207.59 C 555.60 219.45 549.81 231.45 543.87 243.37 C 528.80 243.57 513.72 243.24 498.65 243.54 C 498.26 243.12 497.48 242.28 497.09 241.86 C 486.29 244.78 475.12 246.43 463.92 246.29 C 447.99 246.61 431.43 244.57 417.32 236.70 C 406.09 230.46 397.96 219.41 394.66 207.06 C 390.48 192.05 391.71 176.25 394.19 161.08 C 397.29 138.78 400.79 116.53 403.76 94.22 C 381.92 93.98 360.06 94.07 338.22 94.17 C 335.61 107.10 334.31 120.31 332.18 133.34 C 351.04 133.59 369.90 133.41 388.76 133.44 C 386.87 146.68 384.90 159.92 383.08 173.17 C 364.22 173.31 345.34 172.94 326.49 173.36 C 322.95 196.71 319.63 220.08 316.19 243.43 C 299.20 243.45 282.21 243.34 265.23 243.49 C 274.28 179.52 283.81 115.61 292.94 51.64 C 331.86 51.67 370.77 51.60 409.69 51.68 C 408.08 63.92 406.15 76.12 404.40 88.35 C 404.19 90.28 404.33 92.24 404.42 94.18 C 413.84 94.19 423.28 94.52 432.70 93.96 C 434.53 79.83 436.66 65.75 438.73 51.66 C 446.16 51.63 453.60 51.65 461.04 51.65 C 456.24 86.78 450.93 121.85 445.87 156.95 C 444.35 168.14 441.87 179.81 445.08 190.93 C 446.91 197.82 453.09 203.03 460.05 204.23 C 471.32 206.57 484.81 204.97 492.81 195.87 C 499.64 188.23 502.25 177.87 503.94 168.01 C 509.60 129.23 515.21 90.43 520.83 51.64 C 537.51 51.66 554.20 51.62 570.89 51.66 C 569.27 64.85 566.86 77.94 565.27 91.13 C 564.39 97.80 562.91 104.45 562.80 111.16 C 566.21 105.93 568.72 100.19 571.56 94.64 C 578.78 80.06 586.17 65.56 593.28 50.92 M 802.71 60.66 C 800.77 69.32 800.06 78.20 798.62 86.96 C 794.82 112.73 791.12 138.52 787.40 164.31 C 787.06 166.88 786.24 169.47 786.78 172.07 C 793.71 168.67 800.24 164.26 805.61 158.68 C 817.32 146.43 823.16 129.63 824.99 113.02 C 825.81 102.88 825.93 92.38 822.41 82.69 C 818.84 73.29 812.07 64.75 802.71 60.66 M 555.75 125.68 C 539.27 159.17 522.64 192.58 505.97 225.97 C 503.53 231.24 500.47 236.20 498.46 241.65 C 515.84 236.76 531.32 225.11 540.60 209.56 C 550.83 193.22 554.24 173.91 556.74 155.11 C 558.65 141.03 560.98 127.01 562.74 112.91 C 559.71 116.75 558.08 121.43 555.75 125.68 Z" />
</g>
<g id="#e6e7e9ff">
<path fill="#e6e7e9" opacity="1.00" d=" M 5.93 86.91 C 15.67 81.41 25.19 75.51 35.00 70.14 C 52.65 80.44 70.38 90.60 87.99 100.96 C 90.47 102.35 92.83 104.31 95.79 104.47 C 102.29 116.46 110.76 127.41 120.77 136.67 C 131.17 126.54 140.56 115.03 146.77 101.83 C 146.77 102.47 146.78 103.76 146.78 104.40 C 166.31 93.95 185.13 82.17 204.43 71.33 C 206.41 70.46 208.30 72.15 210.01 72.95 C 219.14 78.52 228.63 83.51 237.62 89.30 C 204.20 108.66 170.83 128.11 137.40 147.46 C 125.94 153.06 111.31 152.51 100.55 145.52 C 70.41 127.93 40.19 110.48 10.03 92.92 C 7.15 91.20 4.25 89.49 1.15 88.19 C 2.79 87.96 4.48 87.78 5.93 86.91 Z" />
</g>
<g id="#91c7ecff">
<path fill="#91c7ec" opacity="1.00" d=" M 8.65 150.35 C 40.49 168.39 71.98 187.08 103.70 205.34 C 114.76 211.67 129.48 211.14 140.05 203.99 C 166.80 188.43 193.56 172.88 220.35 157.37 C 224.35 155.05 228.27 152.55 232.48 150.62 C 230.87 164.46 228.16 178.17 226.20 191.97 C 225.80 193.47 226.07 195.59 224.34 196.30 C 194.82 213.46 165.28 230.60 135.73 247.74 C 131.47 249.95 126.68 251.09 121.95 251.73 C 115.82 251.22 109.40 250.26 104.11 246.89 C 78.63 232.02 53.09 217.25 27.59 202.43 C 23.59 200.06 19.36 198.00 15.77 195.00 C 13.30 180.13 10.97 165.24 8.65 150.35 Z" />
</g>
</svg>
